<svg width="123" height="120" viewBox="0 0 123 120" fill="none" xmlns="http://www.w3.org/2000/svg">
<path d="M19.9887 52C19.4757 53.0022 18.5917 53.7646 17.5249 54.1247C16.4582 54.4848 15.293 54.4142 14.2776 53.928C13.2621 53.4417 12.4766 52.5783 12.0883 51.5215C11.7 50.4647 11.7396 49.298 12.1987 48.27C13.0309 46.4925 13.9624 44.7631 14.9887 43.09C16.0338 41.4197 17.1688 39.8073 18.3887 38.26L18.4487 38.18C19.649 36.6709 20.9274 35.2256 22.2787 33.85C23.6584 32.4386 25.1139 31.1033 26.6387 29.85V29.85C27.5258 29.1384 28.6573 28.8043 29.7887 28.92C30.3495 28.9764 30.8937 29.1433 31.3897 29.4111C31.8857 29.6788 32.3238 30.0421 32.6787 30.48V30.48C33.3903 31.3671 33.7244 32.4986 33.6087 33.63C33.5523 34.1909 33.3854 34.735 33.1176 35.231C32.8499 35.727 32.4866 36.1651 32.0487 36.52V36.52C30.7613 37.5645 29.5327 38.6796 28.3687 39.86C24.9187 43.4117 22.0864 47.5149 19.9887 52V52ZM8.89869 95.49L9.14869 95.3C11.7187 93.77 15.6087 94.17 18.1487 92.4C18.3338 92.1122 18.4912 91.8075 18.6187 91.49C18.8587 90.95 19.0687 90.36 19.2087 89.96C18.6437 89.2643 18.129 88.5291 17.6687 87.76L16.1087 85.28C15.6089 84.6158 15.301 83.8272 15.2187 83C15.2035 82.7187 15.2549 82.4377 15.3687 82.18C15.4819 81.9266 15.666 81.7113 15.8987 81.56C16.018 81.4829 16.1454 81.4192 16.2787 81.37C16.1748 79.8857 16.1515 78.3969 16.2087 76.91C16.2946 76.0078 16.5967 75.1396 17.0893 74.3789C17.5819 73.6182 18.2506 72.9875 19.0387 72.54C19.7197 72.1019 20.4608 71.765 21.2387 71.54C21.7387 71.4 20.8187 69.82 21.3287 69.77C23.8087 69.51 27.8187 71.77 29.5387 73.64C30.4852 74.6958 31.0273 76.0527 31.0687 77.47L30.9787 81.47C31.1805 81.5223 31.3639 81.6294 31.5086 81.7794C31.6533 81.9294 31.7537 82.1165 31.7987 82.32C31.8822 83.0575 31.7318 83.8027 31.3687 84.45V84.45L29.5987 87.38C28.9923 88.4621 28.2606 89.4691 27.4187 90.38C27.4895 90.4972 27.5663 90.6107 27.6487 90.72C27.9887 91.2544 28.377 91.7565 28.8087 92.22C28.8087 92.22 28.8087 92.22 28.8087 92.22C30.8087 93.67 35.8087 94.02 37.7487 95.08H37.8187L38.0587 95.27C41.1315 91.6274 42.7324 86.9682 42.5474 82.2062C42.3624 77.4443 40.4048 72.9232 37.0587 69.53L36.9887 69.64C33.4936 66.1966 28.808 64.2294 23.9023 64.1459C18.9966 64.0624 14.2467 65.8689 10.6364 69.1913C7.0261 72.5137 4.83199 77.0974 4.5085 81.9931C4.18501 86.8889 5.75693 91.7215 8.89869 95.49V95.49ZM23.4887 59.65C26.5741 59.6456 29.6299 60.2512 32.4805 61.4319C35.331 62.6127 37.9201 64.3452 40.0987 66.53L40.2287 66.67C44.5771 71.087 47.0035 77.0436 46.9791 83.2418C46.9548 89.44 44.4817 95.3774 40.0987 99.76L39.9587 99.89C37.2102 102.592 33.8389 104.577 30.1422 105.668C26.4455 106.76 22.537 106.925 18.7614 106.149C14.9858 105.373 11.4592 103.68 8.49259 101.219C5.52597 98.7583 3.21051 95.6051 1.75046 92.0379C0.290402 88.4706 -0.269388 84.5989 0.120463 80.7642C0.510314 76.9295 1.83783 73.2496 3.98591 70.0492C6.13399 66.8487 9.03663 64.2261 12.4378 62.4125C15.839 60.599 19.6342 59.6502 23.4887 59.65V59.65ZM85.5487 96.11C87.4587 94.43 91.5487 94.01 94.0587 92.53C96.2587 91.21 95.8787 89.88 95.8687 87.7H92.3787C83.3187 87.7 89.2887 88.41 90.5187 78.57C92.3587 64.67 106.359 64.66 108.429 78.57C109.749 88.04 115.429 87.7 106.559 87.7H102.989C102.989 90.11 102.599 91.34 105.099 92.7C106.959 93.7 111.189 94.35 113.219 96.03C116.62 92.4374 118.497 87.666 118.454 82.7186C118.411 77.7713 116.452 73.0332 112.989 69.5L112.869 69.4C109.307 65.8445 104.486 63.8376 99.4534 63.8152C94.4206 63.7927 89.5822 65.7565 85.9887 69.28L85.8787 69.4C82.3534 72.9321 80.3478 77.702 80.2899 82.692C80.232 87.682 82.1263 92.4971 85.5687 96.11H85.5487ZM99.3687 59.41C102.456 59.406 105.513 60.0117 108.365 61.1923C111.217 62.373 113.808 64.1054 115.989 66.29L116.109 66.43C120.461 70.8444 122.891 76.8008 122.868 82.9998C122.846 89.1987 120.373 95.1373 115.989 99.52L115.849 99.65C111.434 104.003 105.477 106.433 99.2769 106.409C93.0771 106.384 87.1388 103.908 82.7587 99.52L82.6287 99.39C78.2748 94.9739 75.8448 89.0147 75.8692 82.8132C75.8935 76.6118 78.3703 70.6718 82.7587 66.29L82.8887 66.16C87.2801 61.8296 93.2013 59.4043 99.3687 59.41V59.41ZM48.7087 35.84L48.9587 35.64C51.5387 34.12 55.4187 34.52 57.9587 32.75C58.1358 32.4577 58.2929 32.1537 58.4287 31.84C58.6587 31.3 58.8787 30.71 59.0087 30.31C58.4469 29.6118 57.9325 28.8768 57.4687 28.11L55.9087 25.63C55.3998 24.9719 55.0816 24.1867 54.9887 23.36C54.9747 23.082 55.026 22.8046 55.1387 22.55C55.2556 22.2959 55.443 22.0807 55.6787 21.93C55.7957 21.849 55.9236 21.785 56.0587 21.74C55.9498 20.2559 55.9264 18.7668 55.9887 17.28C56.0226 16.9418 56.0862 16.6071 56.1787 16.28C56.6165 14.874 57.5562 13.6781 58.8187 12.92C59.5032 12.4818 60.2476 12.1449 61.0287 11.92C61.5187 11.78 60.6087 10.2 61.1187 10.14C63.5887 9.89002 67.5987 12.14 69.3287 14.02C70.265 15.0782 70.8057 16.4281 70.8587 17.84L70.7587 21.84C70.9605 21.8923 71.1439 21.9994 71.2886 22.1494C71.4333 22.2994 71.5337 22.4865 71.5787 22.69C71.6622 23.4275 71.5118 24.1727 71.1487 24.82V24.82C71.1512 24.8366 71.1512 24.8534 71.1487 24.87L69.3687 27.8C68.7657 28.8843 68.0337 29.8916 67.1887 30.8L67.4187 31.14C67.7589 31.6712 68.1472 32.17 68.5787 32.63V32.68C70.5787 34.13 75.5787 34.48 77.5187 35.54H77.5887L77.8287 35.73C80.8972 32.0855 82.4953 27.4271 82.3103 22.6665C82.1254 17.9058 80.1707 13.3855 76.8287 9.99002L76.8087 10C73.3188 6.53211 68.6258 4.54382 63.7067 4.44908C58.7877 4.35434 54.0216 6.16044 50.4007 9.49139C46.7798 12.8223 44.5831 17.4215 44.268 22.3313C43.9528 27.2412 45.5434 32.0834 48.7087 35.85V35.84ZM63.2987 2.36435e-05C66.3841 -0.00436128 69.4399 0.601218 72.2905 1.78194C75.141 2.96266 77.7301 4.69523 79.9087 6.88002L80.0387 7.02002C84.392 11.4345 86.8217 17.392 86.7973 23.5918C86.773 29.7916 84.2965 35.7299 79.9087 40.11L79.7787 40.24C77.0305 42.9421 73.6596 44.9264 69.9634 46.0181C66.2672 47.1097 62.3591 47.2751 58.5839 46.4997C54.8086 45.7242 51.2822 44.0318 48.3155 41.5716C45.3488 39.1114 43.033 35.9591 41.5724 32.3925C40.1117 28.826 39.551 24.9548 39.9398 21.1204C40.3286 17.286 41.6549 13.6062 43.8017 10.4054C45.9486 7.20463 48.85 4.58127 52.2501 2.76664C55.6502 0.952015 59.4446 0.00188051 63.2987 2.36435e-05V2.36435e-05ZM92.2987 37.29C91.6486 36.7399 91.1756 36.0098 90.9391 35.1916C90.7027 34.3734 90.7134 33.5036 90.9698 32.6914C91.2263 31.8793 91.7171 31.1611 92.3806 30.6271C93.044 30.093 93.8505 29.767 94.6987 29.69C95.8361 29.5976 96.9642 29.9568 97.8387 30.69L99.3587 32L100.849 33.42C101.849 34.42 102.849 35.42 103.709 36.42C104.569 37.42 105.439 38.48 106.229 39.54C107.019 40.6 107.819 41.76 108.549 42.92C109.279 44.08 109.969 45.26 110.549 46.44V46.56C110.916 47.3158 111.054 48.1622 110.946 48.9953C110.838 49.8285 110.489 50.6119 109.942 51.2494C109.395 51.8868 108.673 52.3505 107.866 52.5833C107.059 52.8162 106.201 52.8081 105.399 52.56C104.36 52.2142 103.497 51.4794 102.989 50.51C102.469 49.51 101.889 48.51 101.279 47.57C100.669 46.63 100.009 45.65 99.3387 44.76C98.6687 43.87 97.8887 42.94 97.1087 42C96.3287 41.06 95.5887 40.32 94.8087 39.55C94.0287 38.78 93.1587 38 92.2787 37.25L92.2987 37.29ZM76.0387 109C76.5735 108.82 77.1387 108.747 77.7017 108.787C78.2647 108.826 78.8143 108.977 79.3187 109.23H79.3987C80.3882 109.746 81.1405 110.623 81.4987 111.68C81.8502 112.761 81.7606 113.937 81.2493 114.952C80.738 115.967 79.8465 116.739 78.7687 117.1C77.3987 117.56 76.0187 117.96 74.6187 118.31C73.2187 118.66 71.8587 118.93 70.4287 119.16C68.9987 119.39 67.5687 119.57 66.1587 119.68C64.7487 119.79 63.2687 119.86 61.8387 119.86C60.4087 119.86 58.9187 119.8 57.4587 119.68C55.9987 119.56 54.5587 119.38 53.0987 119.14C51.6387 118.9 50.1787 118.59 48.7887 118.24C47.3987 117.89 45.9587 117.46 44.5987 117C44.0611 116.814 43.5653 116.524 43.1398 116.147C42.7143 115.769 42.3673 115.312 42.1187 114.8C41.8666 114.291 41.7182 113.738 41.6821 113.171C41.6461 112.605 41.7231 112.037 41.9087 111.5C42.2826 110.417 43.0699 109.525 44.0987 109.02C44.6073 108.768 45.161 108.62 45.7276 108.583C46.2941 108.547 46.8622 108.624 47.3987 108.81V108.81C48.5287 109.19 49.6987 109.54 50.8887 109.81C52.0487 110.1 53.2187 110.35 54.3787 110.54C55.5387 110.73 56.7487 110.88 57.9887 110.98C59.2287 111.08 60.4187 111.13 61.6887 111.13C62.9587 111.13 64.1487 111.08 65.3287 110.98C66.5087 110.88 67.7487 110.74 68.8887 110.55H68.9587C70.1187 110.36 71.2887 110.12 72.4487 109.83C73.6087 109.54 74.7687 109.21 75.8887 108.83L76.0387 109Z" fill="white"/>
</svg>
