<svg width="515" height="435" viewBox="0 0 515 435" fill="none" xmlns="http://www.w3.org/2000/svg">
<path d="M7.93012 409.254H506.272C510.653 409.254 514.201 412.803 514.201 417.185V417.344C514.201 421.725 510.653 425.274 506.272 425.274H7.93012C3.55011 425.274 0 421.725 0 417.344V417.185C0 412.803 3.55011 409.254 7.93012 409.254V409.254Z" fill="#717075"/>
<path d="M299.942 418.074H315.2C319.582 418.074 323.131 421.623 323.131 426.005V426.161C323.131 430.543 319.582 434.092 315.2 434.092H299.942C295.561 434.092 292.012 430.543 292.012 426.161V426.005C292.012 421.623 295.561 418.074 299.942 418.074Z" fill="#717075"/>
<path d="M335.106 418.075H350.368C354.748 418.075 358.3 421.624 358.3 426.005V426.164C358.3 430.546 354.748 434.095 350.368 434.095H335.106C330.731 434.095 327.179 430.546 327.179 426.164V426.005C327.179 421.624 330.731 418.075 335.106 418.075Z" fill="#717075"/>
<path d="M373.191 418.075H388.459C392.839 418.075 396.389 421.624 396.389 426.005V426.164C396.389 430.546 392.839 434.094 388.459 434.094H373.191C368.811 434.094 365.26 430.546 365.26 426.164V426.005C365.26 421.624 368.811 418.075 373.191 418.075Z" fill="#717075"/>
<path d="M411.282 418.075H426.538C430.917 418.075 434.468 421.624 434.468 426.005V426.164C434.468 430.546 430.917 434.094 426.538 434.094H411.282C406.898 434.094 403.347 430.546 403.347 426.164V426.005C403.347 421.624 406.898 418.075 411.282 418.075Z" fill="#717075"/>
<path d="M447.578 418.074H462.839C467.222 418.074 470.77 421.623 470.77 426.005V426.164C470.77 430.545 467.222 434.094 462.839 434.094H447.578C443.199 434.094 439.652 430.545 439.652 426.164V426.005C439.652 421.623 443.199 418.074 447.578 418.074Z" fill="#717075"/>
<path d="M483.082 418.073H498.342C502.721 418.073 506.272 421.622 506.272 426.004V426.163C506.272 430.544 502.721 434.093 498.342 434.093H483.082C478.703 434.093 475.152 430.544 475.152 426.163V426.004C475.152 421.622 478.703 418.073 483.082 418.073Z" fill="#717075"/>
<path d="M319.127 138.033L244.31 63.6328L242.969 75.3212L306.029 138.033H319.127Z" fill="#717075"/>
<path d="M168.641 138.033L231.711 75.3212L230.361 63.6328L155.539 138.033H168.641Z" fill="#717075"/>
<path d="M245.241 411.511H227.989V61.9413C227.989 57.1804 231.854 53.3111 236.611 53.3111C241.381 53.3111 245.241 57.1804 245.241 61.9413V411.511Z" fill="#717075"/>
<path d="M228.081 369.725L190.28 411.212L171.809 411.173L228.162 348.932L228.081 369.725Z" fill="#717075"/>
<path d="M244.862 369.725L282.652 411.212L301.12 411.173L244.862 348.932V369.725Z" fill="#717075"/>
<path d="M232.369 71.5122C232.369 73.9344 234.273 75.9056 236.609 75.9056C238.96 75.9056 240.863 73.9344 240.863 71.5122C240.863 69.0854 238.96 67.1232 236.609 67.1232C234.273 67.1232 232.369 69.0854 232.369 71.5122Z" fill="#95D4E9"/>
<path d="M76.9614 320.632H397.724V303.643H76.9614V320.632Z" fill="#034465"/>
<path d="M76.9591 109.917H397.72V101.585H76.9591V109.917Z" fill="#034465"/>
<path d="M86.4283 303.643H388.251V109.905H86.4283V303.643Z" fill="#F2F2F1"/>
<path d="M105.051 234.38H210.271V226.999H105.051V234.38Z" fill="#E2E7F5"/>
<path d="M105.049 248.503H210.269V241.123H105.049V248.503Z" fill="#E2E7F5"/>
<path d="M105.049 262.622H210.269V255.241H105.049V262.622Z" fill="#E2E7F5"/>
<path d="M105.049 276.743H210.269V269.363H105.049V276.743Z" fill="#E2E7F5"/>
<path d="M105.049 290.865H210.269V283.485H105.049V290.865Z" fill="#E2E7F5"/>
<path d="M236.873 290.865H373.072V186.191H236.873V290.865Z" fill="#E2E7F5"/>
<path d="M248.513 292.52H253.364V184.521H248.513V292.52Z" fill="#FEFEFE"/>
<path d="M264.012 292.52H268.864V184.521H264.012V292.52Z" fill="#FEFEFE"/>
<path d="M279.515 292.52H284.363V184.521H279.515V292.52Z" fill="#FEFEFE"/>
<path d="M295.011 292.52H299.863V184.521H295.011V292.52Z" fill="#FEFEFE"/>
<path d="M310.514 292.52H315.362V184.521H310.514V292.52Z" fill="#FEFEFE"/>
<path d="M326.013 292.52H330.861V184.521H326.013V292.52Z" fill="#FEFEFE"/>
<path d="M341.505 292.52H346.361V184.521H341.505V292.52Z" fill="#FEFEFE"/>
<path d="M357.009 292.526H361.859V184.527H357.009V292.526Z" fill="#FEFEFE"/>
<path d="M234.423 201.381H373.664V196.531H234.423V201.381Z" fill="#FEFEFE"/>
<path d="M234.423 217.04H373.664V212.19H234.423V217.04Z" fill="#FEFEFE"/>
<path d="M234.423 232.71H373.664V227.849H234.423V232.71Z" fill="#FEFEFE"/>
<path d="M234.423 248.361H373.664V243.511H234.423V248.361Z" fill="#FEFEFE"/>
<path d="M234.423 264.032H373.664V259.174H234.423V264.032Z" fill="#FEFEFE"/>
<path d="M234.423 279.691H373.664V274.833H234.423V279.691Z" fill="#FEFEFE"/>
<path d="M237.349 254.396L236.049 250.444L294.659 231.094L343.626 243.812L372.69 228.632L374.619 232.324L344.128 248.243L343.35 248.045L294.801 235.434L237.349 254.396Z" fill="#034465"/>
<path d="M349.714 245.399C349.714 248.621 347.104 251.231 343.882 251.231C340.661 251.231 338.054 248.621 338.054 245.399C338.054 242.181 340.661 239.571 343.882 239.571C347.104 239.571 349.714 242.181 349.714 245.399Z" fill="#E95723"/>
<path d="M378.592 230.688C378.592 233.909 375.984 236.522 372.763 236.522C369.542 236.522 366.933 233.909 366.933 230.688C366.933 227.471 369.542 224.863 372.763 224.863C375.984 224.863 378.592 227.471 378.592 230.688Z" fill="#E95723"/>
<path d="M300.563 233.263C300.563 236.484 297.952 239.095 294.731 239.095C291.51 239.095 288.9 236.484 288.9 233.263C288.9 230.032 291.51 227.425 294.731 227.425C297.952 227.425 300.563 230.032 300.563 233.263Z" fill="#E95723"/>
<path d="M243.091 252.144C243.091 255.365 240.481 257.972 237.26 257.972C234.032 257.972 231.422 255.365 231.422 252.144C231.422 248.923 234.032 246.313 237.26 246.313C240.481 246.313 243.091 248.923 243.091 252.144Z" fill="#E95723"/>
<path d="M254.951 172.673H264.059V158.553H254.951V172.673Z" fill="#99C2DA"/>
<path d="M273.17 172.674H282.291V143.062H273.17V172.674Z" fill="#E95723"/>
<path d="M291.404 172.671H300.521V153.159H291.404V172.671Z" fill="#99C2DA"/>
<path d="M309.633 172.673H318.755V132.291H309.633V172.673Z" fill="#E95723"/>
<path d="M327.86 172.671H336.97V126.202H327.86V172.671Z" fill="#99C2DA"/>
<path d="M346.09 172.676H355.2V115.184H346.09V172.676Z" fill="#E95723"/>
<path d="M159.638 169.128H200.499C199.18 189.144 182.562 204.992 162.198 204.992C140.968 204.992 123.76 187.796 123.76 166.564C123.76 146.195 139.61 129.574 159.638 128.255V169.128V169.128Z" fill="#034465"/>
<path d="M164.759 162.503V130.773C177.041 131.643 187.63 138.733 193.399 148.894L164.759 162.503Z" fill="#99C2DA"/>
<path d="M197.979 163.993H173.561L195.63 153.516C196.94 156.875 197.732 160.382 197.979 163.993V163.993Z" fill="#E95723"/>
<path d="M430.373 39.0993L428.304 37.0298L431.742 33.6014C432.433 32.91 433.005 31.8392 432.4 31.239L429.365 28.1995L427.022 30.5427C426.345 31.2294 425.812 31.0085 425.212 30.3987L421.937 27.1192C421.337 26.5189 421.044 25.9379 421.735 25.2513L424.074 22.9129L421.462 20.3008C420.861 19.7006 419.363 19.8494 418.681 20.5409L415.243 23.9693L413.601 22.3319C413.001 21.7221 411.973 21.5924 411.282 22.2791L407.551 26.0196C406.864 26.711 407.004 27.7194 407.604 28.3292L409.241 29.9713L406.221 32.9916C405.534 33.6782 405.683 34.8786 406.283 35.4788L408.891 38.0909L410.523 36.4584C411.215 35.7717 412.506 35.3492 413.107 35.9494L416.391 39.2289C416.991 39.8291 416.501 41.0728 415.815 41.7498L414.182 43.392L417.222 46.4218C417.827 47.022 418.595 46.7387 419.282 46.0521L422.302 43.0318L424.371 45.1014C424.971 45.7016 425.922 45.7688 426.614 45.0822L430.354 41.3417C431.031 40.6598 430.983 39.6995 430.373 39.0993V39.0993Z" fill="#99C2DA"/>
<path d="M405.991 40.9731L403.891 43.0691L400.374 39.5523C399.684 38.8631 398.465 38.0612 397.851 38.6708L394.662 41.8593L397.194 44.3914C397.879 45.0807 397.663 45.2823 397.054 45.8919L393.772 49.1695C393.171 49.7697 392.665 50.2902 391.971 49.6103L389.444 47.0829L386.926 49.6009C386.311 50.2105 386.841 51.7016 387.53 52.3909L391.052 55.903L389.214 57.741C388.614 58.3412 388.201 59.4808 388.89 60.1607L392.632 63.9025C393.312 64.5918 394.634 64.362 395.23 63.7524L397.073 61.9237L399.989 64.8403C400.683 65.5296 401.56 65.4499 402.165 64.8497L404.692 62.3223L403.182 60.8218C402.502 60.1325 401.991 58.6039 402.601 57.9896L405.883 54.7119C406.483 54.1117 407.712 54.9137 408.401 55.6029L409.911 57.1127L413.104 53.9101C413.705 53.3099 413.512 52.691 412.832 52.0017L409.911 49.0804L412.003 46.9797C412.612 46.3795 412.57 45.3292 411.895 44.6399L408.153 40.9122C407.464 40.2229 406.591 40.3635 405.991 40.9731V40.9731Z" fill="#E95723"/>
<path d="M416.812 35.5191L421.102 35.4909C421.352 35.4909 421.582 35.5802 421.756 35.759C421.935 35.9331 422.034 36.1589 422.025 36.4083L421.94 40.6614L420.133 40.6285L420.19 37.3116L416.821 37.3304L416.812 35.5191V35.5191Z" fill="#39519C"/>
<path d="M406.877 49.3429L420.469 35.7554L421.748 37.044L408.156 50.6363L406.877 49.3429Z" fill="#39519C"/>
<path d="M398.431 47.1709V47.1524L398.511 42.903L400.323 42.9449L400.262 46.2531L403.631 46.2344L403.641 48.0516L399.349 48.0749C399.102 48.0842 398.869 47.9817 398.692 47.814C398.534 47.6416 398.431 47.4132 398.431 47.1709V47.1709Z" fill="#39519C"/>
<path d="M398.699 46.5337L412.29 32.9435L413.569 34.2227L399.983 47.8129L398.699 46.5337Z" fill="#39519C"/>
<path d="M166.33 7.53293C166.33 7.53293 166.199 7.53293 165.97 7.53293C165.741 7.53293 165.399 7.54273 164.961 7.56223C164.079 7.58173 162.809 7.64022 161.19 7.77182C157.958 8.02052 153.369 8.51303 147.939 9.60534C145.22 10.1417 142.299 10.8342 139.24 11.7314C136.189 12.614 133.01 13.7307 129.8 15.0913C128.202 15.7837 126.59 16.5152 124.999 17.3539C124.191 17.7537 123.411 18.2121 122.61 18.6412C122.219 18.8753 121.831 19.1045 121.432 19.3337L120.839 19.6945L120.261 20.0651C118.701 21.0209 117.191 22.1132 115.72 23.2445C114.99 23.8345 114.249 24.405 113.561 25.0341C113.209 25.3413 112.849 25.6339 112.51 25.9606L111.501 26.9212C110.171 28.2524 108.891 29.6129 107.741 31.0953C107.141 31.8024 106.619 32.5728 106.068 33.314C105.8 33.6944 105.56 34.0942 105.299 34.4746C105.06 34.8647 104.791 35.2304 104.569 35.6449C102.682 38.795 101.221 42.1109 100.219 45.4317C99.2211 48.7524 98.6496 52.0537 98.3604 55.1843C98.0605 58.315 98.1099 61.2846 98.2615 64.0007C98.3005 64.6834 98.339 65.3515 98.3882 66.0049C98.4589 66.6534 98.5297 67.2825 98.5897 67.892C98.6321 68.2041 98.6598 68.5113 98.6915 68.8039C98.7305 69.1013 98.7798 69.4037 98.8188 69.6914C98.8997 70.2717 98.9915 70.8324 99.0695 71.3835C99.4294 73.5534 99.7994 75.4308 100.159 76.9717C100.491 78.5224 100.83 79.7024 101.041 80.5217C101.26 81.3409 101.37 81.7846 101.37 81.7846C101.37 81.7846 101.271 81.3409 101.091 80.5119C100.922 79.6927 100.622 78.4834 100.36 76.9229C100.05 75.382 99.7609 73.4949 99.4893 71.3152C99.4293 70.7642 99.3689 70.2034 99.309 69.6231C99.2812 69.3354 99.2494 69.0428 99.2211 68.7405C99.1996 68.443 99.1713 68.1456 99.1611 67.8335C99.1187 67.224 99.0694 66.5949 99.0304 65.9415C98.9987 65.3027 98.9915 64.6444 98.9813 63.9617C98.9388 61.2749 99.0095 58.3442 99.4293 55.2818C99.8311 52.2243 100.508 49.0352 101.609 45.851C102.699 42.6814 104.231 39.5508 106.149 36.625C106.372 36.2447 106.64 35.9034 106.901 35.5328C107.151 35.1817 107.398 34.8111 107.67 34.4648C108.22 33.7724 108.749 33.0605 109.338 32.4022C110.481 31.0514 111.752 29.8031 113.061 28.6035L114.059 27.7112C114.39 27.4235 114.75 27.1504 115.089 26.8724C115.77 26.3019 116.5 25.785 117.199 25.2535C118.648 24.2441 120.12 23.2542 121.651 22.3911L122.212 22.0741L122.79 21.7523C123.171 21.5524 123.549 21.3427 123.94 21.133C124.709 20.7527 125.482 20.3431 126.261 19.992C127.81 19.2508 129.38 18.6217 130.939 18.0122C134.061 16.8419 137.152 15.891 140.119 15.1546C143.082 14.4036 145.922 13.8526 148.561 13.4332C153.831 12.6043 158.269 12.3019 161.36 12.1849C162.912 12.1313 164.122 12.1118 164.94 12.1215C165.339 12.1313 165.649 12.1313 165.861 12.1313C166.062 12.141 166.161 12.141 166.161 12.141L166.33 7.53293V7.53293Z" fill="#E95723"/>
<path d="M180.409 19.3205C179.901 19.1939 179.58 18.6828 179.711 18.1717L181.722 9.74054C181.849 9.23424 182.36 8.91303 182.879 9.03473C183.391 9.16123 183.711 9.67244 183.581 10.1835L181.57 18.6147C181.44 19.1209 180.932 19.4422 180.409 19.3205Z" fill="#B8B5DB"/>
<path d="M185.651 20.9938C182.18 22.425 177.858 24.6343 173.361 24.2741L172.909 26.1615C177.23 28.0538 183.401 30.7529 185.232 31.5549C188.131 32.8229 189.32 31.9632 189.32 31.9632L199.579 27.3622C199.579 27.3622 189.189 19.5338 185.651 20.9938V20.9938Z" fill="#596AAF"/>
<path d="M196.473 2.30872C196.473 2.30872 195.803 1.00921 192.642 0.822112C190.642 0.689211 183.921 0.290501 179.222 0L178.764 1.89032C182.933 3.61812 185.763 7.55123 188.201 10.4112C190.691 13.3204 203.511 11.0806 203.511 11.0806L196.473 2.30872Z" fill="#034465"/>
<path d="M236.191 27.406L236.23 27.367L236.167 27.3572C235.65 25.8852 233.398 20.5965 229.196 16.4972C220.578 8.06453 183.721 7.85492 183.721 7.85492L182.158 14.3768L180.571 20.8939C180.571 20.8939 213.477 37.5056 224.999 33.9327C230.6 32.1926 235.016 28.5173 236.152 27.445L236.21 27.4645L236.191 27.406V27.406Z" fill="#99C2DA"/>
<path d="M226.28 33.4606C232.404 31.3534 236.233 27.38 236.233 27.38C236.233 27.38 234.623 22.0902 230.109 17.4416C229.762 17.0799 229.391 16.7232 229.015 16.3712C226.874 19.4814 223.85 25.5331 224.742 33.9429C225.268 33.7934 225.784 33.6294 226.28 33.4606Z" fill="#034465"/>
<path d="M159.42 8.95143C159.42 8.95143 177.76 27.3911 180.932 14.1243C184.1 0.862597 159.42 8.95143 159.42 8.95143Z" fill="#E95723"/>
<path d="M183.629 12.9625C183.34 12.8026 181.978 12.5265 181.601 12.5361C181.329 12.5458 177.738 12.4537 175.737 12.4149L175.53 13.3066C177.329 14.1742 180.56 15.7251 180.8 15.8656C181.128 16.0352 182.469 16.4132 182.8 16.4035C183.051 16.4035 184.268 16.1225 184.888 15.9528L185.28 14.3148C184.807 13.8931 183.848 13.0837 183.629 12.9625V12.9625Z" fill="#596AAF"/>
<path d="M193.77 18.0796C194.271 15.992 196.391 14.6921 198.49 15.1898C199.509 15.4411 200.371 16.0597 200.92 16.9633C201.46 17.8525 201.63 18.9011 201.39 19.9111C200.882 22.0228 198.761 23.3131 196.663 22.8105C195.65 22.5737 194.782 21.9407 194.243 21.0515C193.692 20.1624 193.519 19.1137 193.759 18.0941L193.77 18.0796V18.0796Z" fill="#FEFEFE"/>
<path d="M209.051 18.9233C208.512 18.0316 207.641 17.4049 206.621 17.1639C204.529 16.6529 202.409 17.9544 201.901 20.0513C201.661 21.0732 201.82 22.124 202.37 23.011C202.92 23.9124 203.781 24.5342 204.8 24.7752C206.9 25.2814 209.02 23.9847 209.532 21.883C209.771 20.8611 209.602 19.8151 209.051 18.9233Z" fill="#FEFEFE"/>
<path d="M217.658 23.8452C217.898 22.8259 217.74 21.7729 217.192 20.8833C216.639 19.9938 215.778 19.3639 214.758 19.1235C212.662 18.6138 210.54 19.912 210.039 22.0133C209.789 23.0326 209.961 24.0857 210.512 24.9848C211.058 25.8744 211.922 26.4946 212.941 26.7447C215.042 27.2447 217.153 25.9417 217.658 23.8452V23.8452Z" fill="#FEFEFE"/>
<path d="M472.148 121.985H466.791C466.06 118.996 464.86 116.185 463.281 113.643L463.299 113.624L467.092 109.832C467.932 108.983 467.932 107.623 467.092 106.774L460.502 100.184C459.648 99.3353 458.288 99.3353 457.44 100.184L453.652 103.972C451.023 102.375 448.189 101.225 445.273 100.545V95.1549C445.273 93.9638 444.3 93.0054 443.109 93.0054H433.781C432.59 93.0054 431.618 93.9638 431.618 95.1549V100.522C428.628 101.252 425.817 102.443 423.28 104.022L423.262 104.004L419.469 100.216C418.62 99.3764 417.26 99.3764 416.411 100.216L409.821 106.815C408.972 107.655 408.972 109.024 409.821 109.864L413.609 113.652C412.012 116.294 410.862 119.124 410.182 122.035H404.792C403.601 122.035 402.643 123.003 402.643 124.194V133.522C402.643 134.714 403.601 135.686 404.792 135.686H410.159C410.889 138.675 412.08 141.486 413.659 144.033L413.641 144.042L409.849 147.844C409.009 148.688 409.009 150.052 409.849 150.892L416.448 157.496C417.288 158.336 418.661 158.336 419.501 157.496L423.289 153.694C425.922 155.305 428.761 156.442 431.673 157.126V162.516C431.673 163.703 432.64 164.675 433.831 164.675H443.16C444.351 164.675 445.323 163.703 445.323 162.516V157.154C448.307 156.428 451.119 155.223 453.67 153.644L453.688 153.662L457.481 157.45C458.32 158.304 459.689 158.304 460.529 157.45L467.128 150.865C467.968 150.016 467.968 148.656 467.128 147.802L463.331 144.014C464.938 141.381 466.083 138.556 466.759 135.635H472.148C473.34 135.635 474.312 134.663 474.312 133.472V124.144C474.312 122.953 473.34 121.985 472.148 121.985V121.985Z" fill="#034465"/>
<path fill-rule="evenodd" clip-rule="evenodd" d="M438.468 150.776C450.591 150.776 460.408 140.954 460.408 128.836C460.408 116.717 450.591 106.896 438.468 106.896C426.358 106.896 416.528 116.717 416.528 128.836C416.528 140.954 426.358 150.776 438.468 150.776Z" fill="#99C2DA"/>
<path d="M438.482 113.422C429.973 113.422 423.085 120.32 423.085 128.833C423.085 137.341 429.973 144.243 438.482 144.243C446.991 144.243 453.892 137.341 453.892 128.833C453.892 120.32 446.991 113.422 438.482 113.422Z" fill="#034465"/>
<path d="M298.411 425.443H316.731V365.546H298.411V425.443Z" fill="#99C2DA"/>
<path d="M335.041 425.442H353.354V342.941H335.041V425.442Z" fill="#EB6020"/>
<path d="M371.674 425.442H389.984V357.673H371.674V425.442Z" fill="#99C2DA"/>
<path d="M408.294 425.442H426.613V327.219H408.294V425.442Z" fill="#EA6020"/>
<path d="M444.917 425.443H463.242V299.724H444.917V425.443Z" fill="#99C2DA"/>
<path d="M481.551 425.443H499.872V271.234H481.551V425.443Z" fill="#EB6020"/>
<path d="M297.282 350.823C296.303 350.823 295.343 350.333 294.782 349.444C293.908 348.065 294.323 346.233 295.702 345.363L344.732 314.362C345.543 313.852 346.563 313.765 347.441 314.143L378.698 327.144L467.559 261.593C468.871 260.624 470.733 260.901 471.694 262.222C472.673 263.533 472.391 265.382 471.07 266.352L380.861 332.895C380.028 333.51 378.93 333.642 377.974 333.246L346.59 320.195L298.863 350.365C298.371 350.675 297.82 350.823 297.282 350.823V350.823Z" fill="#034465"/>
<path d="M472.91 273.783L480.93 255.416L461.003 257.654L472.91 273.783Z" fill="#364E9A"/>
<path d="M386.959 328.484C386.959 332.826 383.451 336.343 379.109 336.343C374.767 336.343 371.25 332.826 371.25 328.484C371.25 324.154 374.767 320.634 379.109 320.634C383.451 320.634 386.959 324.154 386.959 328.484Z" fill="#EB6020"/>
<path d="M353.354 318.135C353.354 322.472 349.846 325.992 345.501 325.992C341.163 325.992 337.64 322.472 337.64 318.135C337.64 313.789 341.163 310.281 345.501 310.281C349.846 310.281 353.354 313.789 353.354 318.135Z" fill="#95D4E9"/>
<path d="M494.754 251.302C494.754 255.644 491.232 259.165 486.89 259.165C482.553 259.165 479.041 255.644 479.041 251.302C479.041 246.96 482.553 243.452 486.89 243.452C491.232 243.452 494.754 246.96 494.754 251.302Z" fill="#E95723"/>
<path d="M353.354 318.135C353.354 322.472 349.846 325.992 345.501 325.992C341.163 325.992 337.64 322.472 337.64 318.135C337.64 313.789 341.163 310.281 345.501 310.281C349.846 310.281 353.354 313.789 353.354 318.135Z" fill="#E95723"/>
<path d="M417.142 296.404C416.627 296.644 416.02 296.357 415.889 295.805L415.392 293.793C415.282 293.384 415.489 292.946 415.881 292.765C416.391 292.524 416.99 292.815 417.129 293.363L417.631 295.362C417.74 295.784 417.53 296.226 417.142 296.404V296.404Z" fill="#FEFEFE"/>
<path d="M419.767 295.172C419.259 295.413 418.662 295.134 418.518 294.583L418.019 292.573C417.909 292.154 418.121 291.722 418.51 291.531C419.022 291.303 419.632 291.595 419.759 292.133L420.271 294.143C420.368 294.562 420.161 294.994 419.767 295.172V295.172Z" fill="#FEFEFE"/>
<path d="M390.124 209.861L390.403 203.941L390.124 209.861Z" fill="#F198B5"/>
<path d="M394.591 206.434C397.16 206.323 395.507 202.065 394.53 202.114C393.54 202.171 392.018 206.556 394.591 206.434Z" fill="#FEFEFE"/>
<path d="M72.0395 77.6498H83.3691C82.9995 83.2133 78.3898 87.6009 72.7495 87.6009C66.8696 87.6009 62.0894 82.8293 62.0894 76.9394C62.0894 71.299 66.4899 66.6908 72.0395 66.3212V77.6498Z" fill="#034465"/>
<path d="M490.339 191.603H501.672C501.303 197.153 496.689 201.553 491.054 201.553C485.172 201.553 480.394 196.784 480.394 190.893C480.394 185.253 484.789 180.644 490.339 180.27V191.603Z" fill="#034465"/>
<path d="M127.004 363.802L126.944 353.532L127.134 353.571C127.724 353.702 128.284 353.261 128.294 352.661C128.314 352.192 127.994 351.793 127.544 351.691L126.934 351.56L126.924 350.403L127.214 350.47C127.804 350.601 128.364 350.163 128.384 349.553C128.394 349.091 128.084 348.692 127.634 348.593L126.914 348.431L126.874 341.972C126.834 341.831 126.774 341.693 126.694 341.562C126.654 341.312 126.594 341.051 126.524 340.8C125.614 337.781 122.424 336.073 119.404 336.98C116.384 337.89 114.674 341.083 115.584 344.102L115.604 344.162L115.614 344.191L121.864 364.913C121.964 365.241 122.144 365.53 122.394 365.791C124.044 367.541 127.014 366.201 127.004 363.802V363.802Z" fill="#FEFEFE"/>
<path d="M123.264 364.952L117.014 344.233C116.354 342.042 117.594 339.732 119.784 339.072C121.974 338.412 127.614 339.823 128.274 342.011L128.404 363.833C128.414 366.243 125.434 367.583 123.784 365.83C123.544 365.573 123.364 365.283 123.264 364.952Z" fill="#F6B85E"/>
<path d="M124.104 347.951C121.084 348.872 117.894 347.15 116.984 344.131C116.074 341.122 117.784 337.932 120.804 337.022C123.824 336.112 127.004 337.823 127.914 340.843C128.834 343.863 127.114 347.041 124.104 347.951V347.951Z" fill="#F6B85E"/>
<path d="M125.694 349.063C125.714 348.463 126.274 348.022 126.864 348.152L129.024 348.622C129.474 348.72 129.794 349.133 129.784 349.592C129.764 350.192 129.204 350.632 128.614 350.502L126.454 350.033C126.004 349.93 125.684 349.521 125.694 349.063Z" fill="#FEFEFE"/>
<path d="M125.614 352.171C125.634 351.56 126.194 351.123 126.784 351.253L128.944 351.733C129.394 351.832 129.704 352.231 129.694 352.693C129.684 353.303 129.114 353.74 128.524 353.613L126.364 353.13C125.914 353.031 125.604 352.633 125.614 352.171V352.171Z" fill="#FEFEFE"/>
<path d="M129.414 305.42L118.194 338.92L129.184 339.453L139.444 308.782C140.364 306.041 138.884 303.071 136.144 302.15L136.044 302.122C133.304 301.201 130.334 302.683 129.414 305.42V305.42Z" fill="#2E3254"/>
<path d="M112.244 297.843C111.084 297.843 109.924 297.303 109.184 296.28L96.064 278.32C95.0441 276.923 95.0938 275.011 96.1941 273.67L113.344 252.853C114.674 251.23 117.064 251.001 118.684 252.331C120.294 253.661 120.534 256.052 119.194 257.672L103.924 276.221L115.304 291.81C116.544 293.5 116.174 295.871 114.484 297.112C113.804 297.603 113.024 297.843 112.244 297.843V297.843Z" fill="#EB6020"/>
<path d="M137.434 297.8C136.654 297.8 135.874 297.56 135.204 297.07C133.514 295.842 133.144 293.461 134.384 291.771L145.814 276.15L130.594 257.64C129.264 256.031 129.504 253.643 131.114 252.313C132.734 250.972 135.124 251.212 136.454 252.832L153.544 273.603C154.644 274.94 154.694 276.852 153.674 278.253L140.494 296.252C139.754 297.271 138.604 297.8 137.434 297.8Z" fill="#EB6020"/>
<path d="M136.164 229.633C136.164 235.672 131.264 240.572 125.224 240.572C119.184 240.572 114.284 235.672 114.284 229.633C114.284 223.59 119.184 218.69 125.224 218.69C131.264 218.69 136.164 223.59 136.164 229.633Z" fill="#F6B85E"/>
<path d="M129.234 243.07L129.214 253.47L129.184 260.272L121.214 260.251L121.614 243.62L121.734 238.89L129.234 243.07Z" fill="#F198B5"/>
<path d="M113.374 259.372C113.394 256.123 116.204 252.98 119.104 251.47C123.454 249.212 130.164 250.782 132.304 252.052C135.944 254.222 138.104 258.621 137.854 263.14L138.104 287.4H112.344C112.344 287.4 113.314 266.752 113.374 259.372V259.372Z" fill="#EB6020"/>
<path d="M125.614 266.682C127.504 260.871 129.584 256.8 131.454 251.632C125.724 249.473 120.184 250.683 119.004 251.632C120.874 256.8 122.944 260.871 124.834 266.682C124.934 267.101 125.224 267.782 125.224 267.772L125.244 267.811C125.264 267.74 125.514 267.101 125.614 266.682V266.682Z" fill="#E2E7F5"/>
<path d="M125.914 252.041H124.544L123.254 259.912L124.164 264.703L125.224 267.772L126.294 264.703L127.204 259.912L125.914 252.041Z" fill="#39519C"/>
<path d="M127.304 223.371H123.154C119.484 223.371 116.054 226.37 116.514 230.01C116.844 232.66 116.514 234.653 116.514 238.583C116.514 241.871 120.374 248.27 123.674 248.27H126.784C130.084 248.27 133.944 241.871 133.944 238.583C133.944 234.653 133.604 232.66 133.944 230.01C134.404 226.37 130.964 223.371 127.304 223.371Z" fill="#F198B5"/>
<path d="M121.864 242.34C122.164 243.931 123.554 245.13 125.224 245.13C126.904 245.13 128.294 243.931 128.584 242.34H121.864V242.34Z" fill="#FEFEFE"/>
<path d="M129.364 310.603H121.094C115.144 310.603 110.684 305.163 111.854 299.331L112.344 287.4H138.104L138.604 299.331C139.774 305.163 135.314 310.603 129.364 310.603V310.603Z" fill="#2E3254"/>
<path d="M137.014 302.351H109.484C108.064 302.351 106.924 301.201 106.924 299.79V281.541C106.924 280.123 108.064 278.983 109.484 278.983H137.014C138.434 278.983 139.584 280.123 139.584 281.541V299.79C139.584 301.201 138.434 302.351 137.014 302.351Z" fill="#B8B7DC"/>
<path d="M137.014 303.431H109.484C108.064 303.431 106.924 302.291 106.924 300.873V282.62C106.924 281.202 108.064 280.063 109.484 280.063H137.014C138.434 280.063 139.584 281.202 139.584 282.62V300.873C139.584 302.291 138.434 303.431 137.014 303.431Z" fill="#596AAF"/>
<path d="M127.024 293.69H119.484C118.414 293.69 117.554 292.833 117.554 291.771V291.733C117.554 290.66 118.414 289.803 119.484 289.803H127.024C128.084 289.803 128.954 290.66 128.954 291.733V291.771C128.954 292.833 128.084 293.69 127.024 293.69Z" fill="#FEFEFE"/>
<path d="M125.014 218.69C117.734 218.69 111.434 226.363 111.434 226.363C120.504 231.912 126.884 227.841 129.084 226.042C129.714 225.523 131.014 224.422 131.014 222.983L125.014 218.69Z" fill="#F6B85E"/>
<path d="M126.244 252.493C125.854 252.853 124.464 252.81 124.094 252.433C123.744 252.073 123.624 250.422 123.624 250.422L126.834 250.51C126.834 250.51 126.624 252.151 126.244 252.493Z" fill="#B8B7DC"/>
<path d="M121.824 254.532L119.114 251.262L121.374 248.351L125.224 250.45L121.824 254.532Z" fill="#FEFEFE"/>
<path d="M128.624 254.532L131.344 251.262L129.074 248.351L125.224 250.45L128.624 254.532Z" fill="#FEFEFE"/>
<path d="M129.514 342.931L132.154 333.011L131.964 333.001C131.364 332.983 130.924 332.411 131.064 331.833C131.164 331.381 131.574 331.06 132.034 331.081L132.664 331.113L132.964 329.991L132.664 329.981C132.064 329.953 131.624 329.392 131.764 328.803C131.864 328.351 132.274 328.041 132.734 328.062L133.474 328.083L135.134 321.842C135.204 321.722 135.304 321.602 135.414 321.493C135.514 321.26 135.634 321.02 135.764 320.802C137.414 318.103 140.924 317.252 143.614 318.893C146.314 320.54 147.164 324.051 145.524 326.742L145.484 326.802L145.474 326.83L134.204 345.313C134.024 345.602 133.774 345.831 133.474 346.032C131.434 347.313 128.894 345.263 129.514 342.931V342.931Z" fill="#FEFEFE"/>
<path d="M136.314 328.333C139.004 329.97 142.524 329.12 144.164 326.432C145.804 323.733 144.954 320.223 142.254 318.582C139.564 316.942 136.054 317.792 134.404 320.48C132.764 323.183 133.614 326.693 136.314 328.333Z" fill="#F6B85E"/>
<path d="M132.844 344.991L144.104 326.52C145.304 324.562 144.684 322.012 142.724 320.823C140.774 319.63 134.964 319.57 133.774 321.532L128.154 342.621C127.534 344.942 130.074 346.992 132.114 345.711C132.414 345.521 132.664 345.291 132.844 344.991V344.991Z" fill="#F6B85E"/>
<path d="M134.484 329C134.624 328.411 134.194 327.85 133.584 327.822L131.374 327.741C130.914 327.723 130.504 328.041 130.404 328.492C130.264 329.071 130.704 329.642 131.304 329.663L133.514 329.751C133.974 329.762 134.384 329.452 134.484 329V329Z" fill="#FEFEFE"/>
<path d="M133.784 332.03C133.924 331.441 133.494 330.873 132.884 330.852L130.674 330.771C130.214 330.753 129.804 331.06 129.704 331.512C129.564 332.101 130.004 332.662 130.604 332.69L132.814 332.771C133.274 332.792 133.684 332.482 133.784 332.03V332.03Z" fill="#FEFEFE"/>
<path d="M112.444 297.052L141.164 317.641L132.134 325.38L106.284 305.653C103.934 303.96 103.394 300.693 105.074 298.34L105.144 298.252C106.824 295.902 110.094 295.363 112.444 297.052V297.052Z" fill="#2E3254"/>
<path d="M349.716 58.4678C348.854 57.2197 350.022 55.152 349.292 52.6792C347.102 45.242 349.674 42.0016 349.674 42.0016C349.631 39.2697 351.92 36.8676 355.354 35.6101C356.965 35.0213 358.811 34.6775 360.794 34.6587C363.794 34.6398 366.522 35.3793 368.561 36.6086C370.732 37.918 372.324 39.7784 372.145 41.8508C372.023 43.3204 370.445 45.2609 372.051 47.7383C376.003 53.852 374.293 57.3704 372.183 58.4678C370.252 59.4711 368.024 59.5606 366.884 60.2105C361.053 63.5311 352.764 62.8811 349.716 58.4678V58.4678Z" fill="#596AAF"/>
<path d="M331.429 85.7042C330.077 85.5459 328.688 85.3061 327.258 84.9758C326.208 84.736 325.548 83.6864 325.788 82.6368C326.036 81.5736 327.077 80.9265 328.136 81.1663C334.818 82.7136 340.292 82.0531 344.4 79.2073C350.68 74.8459 351.798 66.8153 351.807 66.7339C351.951 65.6662 352.938 64.9151 354.001 65.0463C355.069 65.1866 355.82 66.1638 355.679 67.2361C355.63 67.6342 354.322 77.0854 346.631 82.415C342.509 85.2744 337.41 86.3738 331.429 85.7042V85.7042Z" fill="#F198B5"/>
<path d="M350.88 69.72C350.504 69.72 350.146 69.7608 349.811 69.8197C350.463 67.9712 350.672 66.612 350.672 66.5803C350.876 65.0399 352.203 63.8801 353.762 63.8801C353.884 63.8801 354.015 63.8891 354.151 63.9118C355.841 64.1293 357.046 65.6923 356.824 67.3822C356.793 67.5816 356.471 69.8514 355.325 72.7692C354.713 71.0702 353.236 69.72 350.88 69.72V69.72Z" fill="#99C2DA"/>
<path d="M354.562 68.0732C353.563 67.5602 352.755 66.0439 353.953 64.6501C355.129 63.2836 356.95 62.5209 358.902 62.4528L359.41 62.4301C361.14 62.362 362.711 63.1202 363.751 64.3414C362.92 66.911 357.281 69.1129 354.562 68.0732V68.0732Z" fill="#F198B5"/>
<path d="M357.87 58.5248L357.834 60.7317L357.751 64.8715L360.932 64.9354L361.032 59.6351L361.069 57.5835C360.109 58.2232 359.012 58.575 357.87 58.5248Z" fill="#F198B5"/>
<path d="M361.032 59.7609V59.633L361.059 58.1125C361.073 58.1125 361.073 58.1125 361.073 58.1125L361.041 59.7517C361.032 59.7517 361.032 59.7609 361.032 59.7609V59.7609Z" fill="#574895"/>
<path d="M357.831 61.254L357.872 59.0531C357.954 59.0531 358.018 59.0531 358.1 59.0531C359.15 59.0531 360.173 58.7107 361.059 58.1125L361.032 59.633V59.7609C360.315 60.5919 358.949 61.0941 357.831 61.254V61.254Z" fill="#EB5E83"/>
<path d="M358.665 60.1917C361.685 60.1589 364.343 58.6818 366.013 56.431C367.162 54.8696 367.832 52.9376 367.813 50.8509L367.771 47.2216C367.743 44.5816 366.613 42.2089 364.822 40.549C363.157 38.9875 360.906 38.0497 358.44 38.0779C356.813 38.0872 355.293 38.528 353.971 39.2783C351.144 40.8913 349.263 43.9298 349.296 47.4091L349.334 51.0385C349.366 54.3819 351.176 57.2892 353.844 58.8881C355.251 59.7275 356.902 60.2011 358.665 60.1917V60.1917Z" fill="#F198B5"/>
<path d="M348.741 90.2422C347.672 94.9629 353.523 99.6616 358.244 100.735C362.96 101.812 367.659 98.8535 368.741 94.1328C369.809 89.4119 366.851 84.7133 362.13 83.6446C357.409 82.5627 349.823 85.5214 348.741 90.2422Z" fill="#99C2DA"/>
<path d="M358.053 55.3812C357.851 56.5314 356.866 57.4113 355.656 57.4205C354.446 57.4297 353.433 56.5727 353.204 55.4316L358.053 55.3812Z" fill="#FEFEFE"/>
<path d="M349.364 70.2084C348.766 71.8604 350.423 73.8789 352.174 74.069C353.921 74.2591 356.053 71.9826 356.243 70.231C356.433 68.4795 353.822 64.6506 352.844 66.1125C351.903 67.5019 349.871 68.8009 349.364 70.2084Z" fill="#99C2DA"/>
<path d="M363.752 64.3406C364.5 65.2194 364.993 66.3518 365.043 67.6021C365.043 67.6021 362.203 81.3593 368.214 88.6388C368.214 88.6388 357.374 95.1393 348.663 90.7499C348.663 84.5212 352.473 80.2133 351.87 70.1116C351.744 68.0007 352.582 66.0529 353.954 64.6531C354.031 67.8603 360.64 64.0008 363.752 64.3406Z" fill="#99C2DA"/>
<path d="M351.88 129.526C350.336 129.336 349.329 130.624 349.126 131.016C348.028 133.106 347.859 135.484 345.769 139.006C344.341 141.405 343.267 141.756 342.198 143.725C341.289 145.418 342.838 146.306 344.589 145.955C345.27 145.827 349.481 145.484 350.13 142.284C350.596 139.947 354.387 139.175 354.519 138.337C354.597 137.825 354.238 136.177 354.449 134.125C354.696 131.615 353.28 129.707 351.88 129.526V129.526Z" fill="#364E9A"/>
<path d="M348.314 140.332C349.483 138.602 351.502 132.999 351.242 131.641C350.924 130.039 347.823 129.37 347.394 130.679C346.646 132.942 346.886 137.141 344.202 141.129C344.231 142.31 346.944 142.339 348.314 140.332V140.332Z" fill="#F198B5"/>
<path d="M303.662 107.713C304.742 106.594 304.304 105.011 304.112 104.622C303.093 102.484 301.292 100.932 299.718 97.1413C298.651 94.5618 299.01 93.4907 298.061 91.462C297.252 89.7219 295.621 90.4302 294.852 92.0435C294.55 92.66 292.312 96.2407 294.48 98.6716C296.085 100.451 294.432 103.953 295.023 104.561C295.381 104.932 296.924 105.623 298.441 107.022C300.304 108.732 302.678 108.723 303.662 107.713Z" fill="#364E9A"/>
<path d="M297.142 98.3817C297.825 100.35 301.102 105.331 302.354 105.931C303.823 106.631 306.213 104.549 305.422 103.41C304.062 101.472 300.541 99.1423 298.95 94.6091C297.981 93.9311 296.343 96.0825 297.142 98.3817V98.3817Z" fill="#F198B5"/>
<path d="M339.631 102.881L339.784 102.812L360.482 93.3032C362.451 92.4016 364.772 93.2596 365.674 95.2197C366.571 97.1797 365.713 99.5012 363.753 100.412L363.71 100.42L345.891 108.361L352.193 130.004L346.779 131.79L337.754 107.442C337.083 105.651 337.924 103.67 339.631 102.881V102.881Z" fill="#E95723"/>
<path d="M358.644 91.0197C357.635 91.0197 356.567 90.961 355.431 90.8524C354.354 90.7393 353.576 89.7709 353.684 88.6984C353.793 87.6304 354.761 86.852 355.834 86.9606C359.431 87.3317 364.083 87.2095 365.721 84.5306C368.301 80.2995 363.432 70.982 361.526 68.0588C360.934 67.1492 361.183 65.941 362.083 65.3481C362.993 64.7599 364.201 65.0088 364.794 65.9183C365.685 67.2895 373.383 79.4804 369.052 86.5579C367.255 89.5309 363.753 91.0197 358.644 91.0197V91.0197Z" fill="#F198B5"/>
<path d="M368.82 48.2229C368.82 48.2229 362.27 50.571 358.181 47.7241C354.091 44.8724 352.218 40.4821 354.002 37.9221C355.79 35.3528 360.552 35.5834 364.651 38.4209C368.74 41.2725 368.82 48.2229 368.82 48.2229V48.2229Z" fill="#596AAF"/>
<path d="M360.671 92.3843C360.671 92.3843 357.039 92.4757 351.607 92.7022C348.889 92.8328 345.731 92.9853 342.329 93.1465C338.941 93.3425 335.321 93.5647 331.701 93.7738L330.351 93.8522L330.011 93.874L329.92 93.8827L329.55 93.9131L329.38 93.9437L328.709 94.0351L327.367 94.2442L327.293 94.2529L326.958 94.3139L326.919 94.3226L326.757 94.3662L326.431 94.4446L325.777 94.6057C324.048 95.0326 322.336 95.4551 320.69 95.8645C319.052 96.274 317.449 96.6529 315.938 97.0537C314.431 97.4544 313.011 97.8246 311.687 98.1731C309.06 98.8526 306.878 99.4842 305.349 99.9067C303.82 100.342 302.949 100.595 302.949 100.595L304.038 105.504C304.038 105.504 304.94 105.356 306.508 105.103C308.067 104.833 310.31 104.476 312.989 103.966C314.317 103.722 315.768 103.457 317.301 103.173C318.839 102.903 320.45 102.555 322.119 102.233C323.783 101.893 325.499 101.553 327.25 101.205L327.907 101.074L328.239 101.013L328.408 100.982L328.448 100.974C328.517 100.956 327.921 101.065 328.182 101.013H328.199L328.291 101.004L329.628 100.843L330.299 100.765L330.469 100.743H330.49C330.56 100.734 329.95 100.795 330.22 100.765H330.26H330.351L330.686 100.743L332.041 100.695C335.669 100.556 339.289 100.416 342.678 100.286C346.08 100.103 349.246 99.9459 351.96 99.8152C357.392 99.5059 361.011 99.2359 361.011 99.2359L360.671 92.3843V92.3843Z" fill="#E95723"/>
<path d="M359.48 94.6899C359.48 94.0419 358.954 93.5114 358.301 93.5114H315.722C314.834 93.5114 314.104 94.0419 314.104 94.6899C314.104 95.3335 314.834 95.8597 315.722 95.8597H358.301C358.954 95.8597 359.48 95.3422 359.48 94.6899Z" fill="#2E3254"/>
<path d="M361.154 94.6899C361.154 95.3335 360.584 95.8597 359.884 95.8597H343.711C343.019 95.8597 342.454 95.3335 342.454 94.6899C342.454 94.0419 343.019 93.5114 343.711 93.5114H359.884C360.584 93.5114 361.154 94.0419 361.154 94.6899Z" fill="#034465"/>
<path d="M314.166 71.4848V92.9558C314.166 93.9131 314.939 94.6862 315.901 94.6862H344.226C345.188 94.6862 345.961 93.9131 345.961 92.9558V71.4848C345.961 70.5274 345.188 69.7454 344.226 69.7454H315.901C314.939 69.7454 314.166 70.5274 314.166 71.4848V71.4848Z" fill="#FEFEFE"/>
<path d="M312.849 71.4848V92.9558C312.849 93.9131 313.622 94.6862 314.58 94.6862H342.909C343.862 94.6862 344.64 93.9131 344.64 92.9558V71.4848C344.64 70.5274 343.862 69.7454 342.909 69.7454H314.58C313.622 69.7454 312.849 70.5274 312.849 71.4848V71.4848Z" fill="#034465"/>
<path d="M333.417 82.2154C333.417 81.2055 332.602 80.3949 331.588 80.3949H325.901C324.886 80.3949 324.071 81.2055 324.071 82.2154C324.071 83.2253 324.886 84.0447 325.901 84.0447H331.588C332.602 84.0447 333.417 83.2253 333.417 82.2154Z" fill="#FEFEFE"/>
<path d="M366.99 69.3826C364.68 69.3826 363.23 70.6919 362.605 72.3501C361.884 70.8913 361.155 69.591 360.561 68.6804C359.624 67.2532 360.031 65.3323 361.463 64.3899C361.97 64.0637 362.55 63.8916 363.153 63.8916C364.213 63.8916 365.173 64.4126 365.753 65.2915C366.202 65.9802 367.149 67.5115 368.15 69.5095C367.792 69.4324 367.412 69.3826 366.99 69.3826Z" fill="#99C2DA"/>
<path d="M346.95 87.3654C346.478 88.4365 346.429 89.5735 346.738 90.6049L353.319 93.514C354.288 93.0424 355.099 92.2446 355.571 91.1824C356.629 88.8022 355.549 86.0121 353.173 84.9631C350.789 83.914 347.999 84.9851 346.95 87.3654Z" fill="#F198B5"/>
<path d="M227.22 364.222V364.095L227.252 362.574C227.262 362.564 227.262 362.564 227.262 362.564L227.23 364.204C227.23 364.215 227.22 364.215 227.22 364.222V364.222Z" fill="#323C78"/>
<path d="M134.243 55.3697C134.462 56.52 135.471 57.3907 136.681 57.3907C137.891 57.3907 138.903 56.52 139.112 55.3697H134.243Z" fill="#FEFEFE"/>
<path d="M75.6279 329.067V339.498C88.6975 340.418 98.2079 351.429 98.7875 364.358C98.9077 367.056 98.4879 369.688 97.6479 372.157L108.088 375.198C109.188 371.789 109.797 368.168 109.797 364.395C109.817 345.265 94.6179 329.688 75.6279 329.067V329.067Z" fill="#99C2DA"/>
<path d="M73.7689 339.422V329.044C64.3191 329.232 55.7887 333.136 49.549 339.34L56.7791 346.383C61.3789 342.124 67.5087 339.455 73.7689 339.422V339.422Z" fill="#034465"/>
<path d="M48.9394 364.355C48.6495 358.021 51.2596 352.141 55.4494 347.679L48.2494 340.671C42.5993 346.932 39.1498 355.222 39.1393 364.323C39.1197 383.613 54.5594 399.293 73.7697 399.674V389.272C59.8397 389.224 49.5395 377.821 48.9394 364.355V364.355Z" fill="#99C2DA"/>
<path d="M96.9877 373.908C93.3575 382.28 84.7675 388.479 75.6277 389.195V399.679C90.1975 399.199 102.537 389.904 107.477 376.954L96.9877 373.908V373.908Z" fill="#034465"/>
<path d="M63.4592 117.814L63.429 116.075L63.4592 117.814Z" fill="#2A2A42"/>
<path d="M98.2883 91.6055C99.3291 90.955 100.528 90.7454 101.65 90.9156L105.647 97.3946C105.298 98.486 104.579 99.4552 103.527 100.106C101.178 101.546 98.1084 100.813 96.6585 98.4773C95.2087 96.1241 95.9391 93.0463 98.2883 91.6055V91.6055Z" fill="#E95723"/>
</svg>
