<svg width="479" height="512" viewBox="0 0 479 512" fill="none" xmlns="http://www.w3.org/2000/svg">
<path d="M0 51.6087C0 46.2297 3.847 41.6207 9.139 40.6577L231.748 0.182674C238.581 -1.05933 244.87 4.18967 244.87 11.1337V454.145H0V51.6087Z" fill="#98C1D9"/>
<path d="M0 55.6517H281.03V512H0V55.6517Z" fill="#EA580C"/>
<path d="M165.592 445.218C171.739 445.218 176.722 450.201 176.722 456.348C176.722 462.495 171.739 467.478 165.592 467.478H115.438C109.291 467.478 104.308 462.495 104.308 456.348C104.308 450.201 109.291 445.218 115.438 445.218H165.592Z" fill="#004466"/>
<path d="M140.516 111.305C174.322 111.305 201.732 131.238 201.732 155.827C201.732 180.416 174.323 200.349 140.516 200.349C106.706 200.349 79.298 180.416 79.298 155.827C79.298 131.238 106.706 111.305 140.516 111.305Z" fill="#98C1D9"/>
<path d="M140.516 133.565C155.883 133.565 168.341 143.531 168.341 155.826C168.341 168.121 155.883 178.087 140.516 178.087C125.148 178.087 112.689 168.121 112.689 155.826C112.689 143.532 125.148 133.565 140.516 133.565Z" fill="#004466"/>
<path d="M443.766 500.386H246.321V453.929H443.765V500.386H443.766Z" fill="#8C8C8E"/>
<path d="M478.608 454.17V459.978C478.608 463.051 476.116 465.543 473.043 465.543H217.043C213.97 465.543 211.478 463.051 211.478 459.978V454.17C211.478 385.506 265.545 329.475 333.429 326.316V301.503C333.429 295.089 338.629 289.888 345.044 289.888C351.459 289.888 356.659 295.088 356.659 301.503V326.316C424.541 329.475 478.608 385.506 478.608 454.17Z" fill="#717075"/>
<path d="M448.662 371.901C425.182 399.857 389.973 417.633 350.608 417.633H339.478C300.113 417.633 264.904 399.858 241.424 371.901C264.904 343.946 300.113 326.169 339.478 326.169H350.608C389.973 326.17 425.182 343.946 448.662 371.901Z" fill="#8C8C8E"/>
<path d="M478.608 499.901V500.869C478.608 507.016 473.625 511.999 467.478 511.999H222.608C216.461 511.999 211.478 507.016 211.478 500.869V499.901C211.478 493.754 216.461 488.771 222.608 488.771H467.478C473.625 488.771 478.608 493.755 478.608 499.901Z" fill="#717075"/>
<path d="M478.608 500.386H211.478C211.478 493.972 216.678 488.771 223.093 488.771H466.994C473.408 488.771 478.608 493.971 478.608 500.386Z" fill="#717075"/>
</svg>
