<svg width="131" height="89" viewBox="0 0 131 89" fill="none" xmlns="http://www.w3.org/2000/svg">
<path d="M2.08003 60.56C2.61672 60.4667 3.20541 60.4067 3.8461 60.38C4.48679 60.34 5.02348 60.32 5.45518 60.32C5.88689 60.32 6.38433 60.34 6.94653 60.38C7.52246 60.4067 8.08466 60.4667 8.6341 60.56L11.7934 72C11.8847 72.28 11.9965 72.7133 12.127 73.3C12.2712 73.8867 12.4213 74.5267 12.5783 75.22C12.7481 75.9133 12.8992 76.58 13.0297 77.22C13.1601 77.8467 13.2583 78.3467 13.324 78.72H13.5595C13.6115 78.3467 13.7037 77.8467 13.8342 77.22C13.9784 76.58 14.1285 75.9133 14.2855 75.22C14.4425 74.5267 14.5926 73.8867 14.7368 73.3C14.8938 72.7133 15.0047 72.28 15.0704 72L18.2494 60.56C18.8116 60.4667 19.3747 60.4067 19.9369 60.38C20.4991 60.34 20.9966 60.32 21.4283 60.32C21.8472 60.32 22.3702 60.34 22.9981 60.38C23.6388 60.4067 24.2412 60.4667 24.8034 60.56L26.8835 87.8C26.5303 87.88 26.1182 87.94 25.6472 87.98C25.1763 88.0333 24.7377 88.06 24.3325 88.06C23.9528 88.06 23.5799 88.0467 23.214 88.02C22.848 87.9933 22.4879 87.9533 22.1347 87.9L21.3302 74.64C21.2909 73.8267 21.2448 72.9133 21.1928 71.9C21.1536 70.8867 21.1143 69.8733 21.0751 68.86C21.0486 67.8333 21.029 66.9133 21.0162 66.1H20.7807L15.9927 83.74C15.6268 83.8067 15.195 83.86 14.6976 83.9C14.2139 83.9267 13.7881 83.94 13.4221 83.94C13.0689 83.94 12.6499 83.9267 12.1662 83.9C11.6825 83.86 11.2567 83.8067 10.8907 83.74L6.10274 66.1H5.86726C5.85451 66.9133 5.82802 67.8333 5.78877 68.86C5.74953 69.8733 5.71028 70.8867 5.67104 71.9C5.63179 72.9133 5.59254 73.8267 5.5533 74.64L4.74876 87.9C4.38279 87.9533 4.00995 87.9933 3.63025 88.02C3.26428 88.0467 2.89144 88.06 2.51174 88.06C2.10623 88.06 1.66795 88.0333 1.197 87.98C0.739093 87.94 0.340164 87.88 0 87.8L2.08003 60.56ZM32.8037 60.8L33.0784 60.54H37.7095V64.74C37.7095 65.3 37.7163 65.7733 37.7291 66.16C37.7428 66.5467 37.7487 67.0133 37.7487 67.56V81.34C37.7487 81.7533 37.7428 82.14 37.7291 82.5C37.7163 82.8467 37.7095 83.2467 37.7095 83.7V87.92H35.6687C34.7798 87.92 34.0792 87.6467 33.569 87.1C33.0588 86.5533 32.8037 85.8067 32.8037 84.86V60.8ZM47.1089 72C47.2011 72.32 47.2658 72.68 47.3051 73.08C47.3581 73.4667 47.3836 73.8 47.3836 74.08C47.3836 74.3733 47.3581 74.7133 47.3051 75.1C47.2658 75.4867 47.2011 75.8467 47.1089 76.18H40.2801C39.9661 76.18 39.5481 76.18 39.0242 76.18C38.514 76.1667 37.9842 76.16 37.4347 76.16C36.899 76.1467 36.4281 76.14 36.0219 76.14V72.04C36.4281 72.04 36.899 72.04 37.4347 72.04C37.9842 72.0267 38.514 72.02 39.0242 72.02C39.5481 72.0067 39.9661 72 40.2801 72H47.1089ZM49.3066 60.54C49.3851 60.9133 49.4312 61.2733 49.444 61.62C49.4705 61.9533 49.4832 62.2667 49.4832 62.56C49.4832 62.84 49.4509 63.1933 49.3851 63.62C49.3204 64.0467 49.2154 64.4533 49.0712 64.84H40.2801C39.9661 64.84 39.5481 64.84 39.0242 64.84C38.514 64.8267 37.9842 64.82 37.4347 64.82C36.899 64.8067 36.4281 64.7933 36.0219 64.78V60.54H49.3066ZM50.1701 83.62C50.1701 85.1 49.9414 86.1867 49.4832 86.88C49.0388 87.5733 48.1626 87.92 46.8538 87.92H36.0219V83.8C36.742 83.76 37.4347 83.72 38.1019 83.68C38.7828 83.64 39.5609 83.62 40.4371 83.62H50.1701ZM55.1877 60.6C55.5801 60.52 56.0834 60.46 56.6986 60.42C57.3265 60.38 57.8103 60.36 58.1507 60.36C58.5167 60.36 58.968 60.3733 59.5047 60.4C60.0541 60.4133 60.584 60.46 61.0942 60.54L59.8187 66.42L59.4458 66.5C59.5243 67.5133 59.5891 68.6533 59.6421 69.92C59.7068 71.1733 59.7529 72.4333 59.7794 73.7C59.8187 74.9667 59.8383 76.12 59.8383 77.16V87.86C59.4321 87.94 59.0269 87.9867 58.6217 88C58.2292 88.0267 57.8691 88.04 57.5424 88.04C57.2412 88.04 56.8684 88.0267 56.4239 88C55.9922 87.9867 55.5801 87.94 55.1877 87.86V60.6ZM61.9772 72.06C61.5062 71.0467 61.0745 70.0667 60.6821 69.12C60.2896 68.16 59.9227 67.2733 59.5832 66.46L57.2677 63.66L61.0942 60.54L68.5117 76.32C69.0081 77.4133 69.4732 78.4733 69.9049 79.5C70.3366 80.5267 70.729 81.4333 71.0823 82.22L73.5744 84.96L69.4732 87.86L61.9772 72.06ZM75.4582 60.58V87.8C75.052 87.88 74.5418 87.94 73.9276 87.98C73.3252 88.02 72.8287 88.04 72.4362 88.04C72.0301 88.04 71.566 88.0267 71.043 88C70.5191 87.9867 69.9961 87.94 69.4732 87.86L70.8272 82.26L71.2 82.16C71.1215 81.0267 71.0489 79.8067 70.9841 78.5C70.9312 77.18 70.8919 75.9 70.8664 74.66C70.8399 73.42 70.8272 72.34 70.8272 71.42V63.46C70.8272 62.3267 71.0361 61.52 71.4551 61.04C71.8731 60.56 72.5795 60.32 73.5744 60.32H75.1835L75.4582 60.58ZM102.108 78.06C102.108 80.3 101.696 82.1867 100.872 83.72C100.06 85.2533 98.89 86.42 97.3594 87.22C95.8288 88.0067 94.0097 88.4 91.9042 88.4C89.7977 88.4 87.9855 88.0067 86.4686 87.22C84.9508 86.42 83.7803 85.2533 82.9561 83.72C82.1447 82.1867 81.7395 80.3 81.7395 78.06V60.6L81.975 60.32H83.8588C84.8527 60.32 85.5787 60.58 86.0369 61.1C86.5079 61.62 86.7434 62.4467 86.7434 63.58V78.1C86.7434 80.14 87.1613 81.6867 87.9992 82.74C88.8489 83.7933 90.1578 84.32 91.9238 84.32C93.6899 84.32 94.9909 83.7933 95.8288 82.74C96.6657 81.6867 97.0847 80.14 97.0847 78.1V60.54C97.4899 60.46 97.9088 60.4133 98.3405 60.4C98.785 60.3733 99.1843 60.36 99.5375 60.36C99.877 60.36 100.289 60.3733 100.774 60.4C101.27 60.4133 101.716 60.46 102.108 60.54V78.06ZM106.029 85.44C106.094 84.7067 106.323 83.9867 106.716 83.28C107.121 82.56 107.565 81.9867 108.05 81.56C109.188 82.28 110.45 82.9067 111.837 83.44C113.236 83.96 114.617 84.22 115.978 84.22C117.391 84.22 118.456 83.9 119.176 83.26C119.908 82.6067 120.275 81.82 120.275 80.9C120.275 80.1533 120.033 79.46 119.549 78.82C119.064 78.1667 118.26 77.6 117.135 77.12L112.387 75.1C110.751 74.3933 109.429 73.48 108.423 72.36C107.415 71.2267 106.912 69.7667 106.912 67.98C106.912 66.4333 107.304 65.06 108.089 63.86C108.874 62.66 109.953 61.72 111.327 61.04C112.713 60.3467 114.283 60 116.037 60C117.763 60 119.385 60.2267 120.903 60.68C122.434 61.12 123.709 61.6067 124.729 62.14C124.69 62.8733 124.507 63.5933 124.18 64.3C123.866 65.0067 123.46 65.5867 122.963 66.04C121.943 65.5333 120.798 65.0933 119.529 64.72C118.26 64.3333 117.116 64.14 116.095 64.14C114.774 64.14 113.766 64.46 113.073 65.1C112.38 65.74 112.033 66.4867 112.033 67.34C112.033 68.0733 112.282 68.6867 112.779 69.18C113.276 69.6733 113.989 70.12 114.918 70.52L119.647 72.54C120.825 73.0333 121.851 73.6533 122.728 74.4C123.617 75.1333 124.304 75.9867 124.788 76.96C125.285 77.92 125.534 78.9933 125.534 80.18C125.534 81.74 125.174 83.14 124.455 84.38C123.735 85.62 122.643 86.6 121.178 87.32C119.712 88.04 117.874 88.4 115.664 88.4C114.041 88.4 112.373 88.14 110.66 87.62C108.946 87.1 107.402 86.3733 106.029 85.44Z" fill="#004466"/>
<path d="M3.43206 0.924C4.31705 0.77 5.28839 0.671001 6.34607 0.627001C7.40375 0.561001 8.28875 0.528 9.00106 0.528C9.71337 0.528 10.5336 0.561001 11.4618 0.627001C12.4115 0.671001 13.3397 0.77 14.2463 0.924L19.4591 19.8C19.6102 20.262 19.7937 20.977 20.0095 21.945C20.247 22.913 20.4952 23.969 20.7542 25.113C21.0348 26.257 21.2831 27.357 21.4989 28.413C21.7148 29.447 21.8767 30.272 21.9846 30.888H22.3731C22.4595 30.272 22.6106 29.447 22.8264 28.413C23.0639 27.357 23.3121 26.257 23.5711 25.113C23.8301 23.969 24.0784 22.913 24.3158 21.945C24.5748 20.977 24.7583 20.262 24.8662 19.8L30.1114 0.924C31.0396 0.77 31.9678 0.671001 32.896 0.627001C33.8241 0.561001 34.6444 0.528 35.3567 0.528C36.0474 0.528 36.9108 0.561001 37.9469 0.627001C39.0046 0.671001 39.9975 0.77 40.9257 0.924L44.3577 45.87C43.7749 46.002 43.095 46.101 42.3179 46.167C41.5409 46.255 40.8177 46.299 40.1486 46.299C39.5226 46.299 38.9074 46.277 38.3031 46.233C37.6987 46.189 37.1051 46.123 36.5223 46.035L35.1948 24.156C35.13 22.814 35.0545 21.307 34.9681 19.635C34.9034 17.963 34.8386 16.291 34.7739 14.619C34.7307 12.925 34.6983 11.407 34.6767 10.065H34.2882L26.388 39.171C25.7836 39.281 25.0713 39.369 24.2511 39.435C23.4524 39.479 22.7509 39.501 22.1465 39.501C21.5637 39.501 20.873 39.479 20.0743 39.435C19.2756 39.369 18.5741 39.281 17.9697 39.171L10.0695 10.065H9.68099C9.6594 11.407 9.61624 12.925 9.55148 14.619C9.48673 16.291 9.42197 17.963 9.35722 19.635C9.29246 21.307 9.2277 22.814 9.16294 24.156L7.83545 46.035C7.23106 46.123 6.61589 46.189 5.98991 46.233C5.38553 46.277 4.77034 46.299 4.14437 46.299C3.47523 46.299 2.75212 46.255 1.97505 46.167C1.21957 46.101 0.561217 46.002 0 45.87L3.43206 0.924ZM60.1817 23.397C60.1817 25.289 60.3112 27.225 60.5702 29.205C60.8292 31.185 61.3041 33.011 61.9948 34.683C62.6856 36.355 63.6785 37.708 64.9736 38.742C66.2903 39.754 67.9956 40.26 70.0893 40.26C72.1831 40.26 73.8775 39.754 75.1727 38.742C76.4894 37.708 77.4931 36.355 78.1838 34.683C78.8745 33.011 79.3386 31.185 79.5761 29.205C79.8351 27.225 79.9646 25.289 79.9646 23.397C79.9646 21.505 79.8351 19.58 79.5761 17.622C79.3386 15.642 78.8745 13.827 78.1838 12.177C77.4931 10.505 76.4894 9.163 75.1727 8.151C73.8775 7.117 72.1831 6.6 70.0893 6.6C67.9956 6.6 66.2903 7.117 64.9736 8.151C63.6785 9.163 62.6856 10.505 61.9948 12.177C61.3041 13.827 60.8292 15.642 60.5702 17.622C60.3112 19.58 60.1817 21.505 60.1817 23.397ZM51.5368 23.397C51.5368 18.843 52.2059 14.806 53.5442 11.286C54.9041 7.766 56.9547 5.005 59.696 3.003C62.4373 1.001 65.9018 0 70.0893 0C74.32 0 77.8061 1.012 80.5474 3.036C83.2887 5.038 85.3177 7.81 86.6344 11.352C87.9727 14.872 88.6419 18.887 88.6419 23.397C88.6419 27.951 87.9727 31.999 86.6344 35.541C85.2962 39.061 83.2563 41.833 80.515 43.857C77.7737 45.859 74.2985 46.86 70.0893 46.86C66.9163 46.86 64.1642 46.288 61.833 45.144C59.5018 43.978 57.5699 42.339 56.0373 40.227C54.5264 38.115 53.3931 35.629 52.6376 32.769C51.9037 29.909 51.5368 26.785 51.5368 23.397ZM131 23.43C131 26.004 130.827 28.479 130.482 30.855C130.158 33.209 129.489 35.409 128.475 37.455C127.482 39.501 125.992 41.338 124.006 42.966C123.035 43.758 121.869 44.407 120.51 44.913C119.15 45.397 117.757 45.749 116.333 45.969C114.93 46.189 113.645 46.299 112.48 46.299C110.688 46.299 109.005 46.288 107.429 46.266C105.853 46.244 104.256 46.211 102.637 46.167C101.04 46.123 99.302 46.079 97.4241 46.035L97.0032 45.606V1.254L97.4241 0.825001C99.2805 0.759001 101.007 0.704 102.605 0.66C104.223 0.616 105.821 0.594 107.397 0.594C108.994 0.594 110.688 0.594 112.48 0.594C113.645 0.594 114.941 0.704 116.365 0.924C117.79 1.144 119.182 1.496 120.542 1.98C121.902 2.464 123.057 3.102 124.006 3.894C125.971 5.522 127.449 7.37 128.442 9.438C129.457 11.484 130.137 13.695 130.482 16.071C130.827 18.425 131 20.878 131 23.43ZM122.485 23.43C122.485 21.56 122.366 19.679 122.128 17.787C121.913 15.895 121.459 14.157 120.769 12.573C120.078 10.967 119.063 9.68 117.725 8.712C116.408 7.744 114.649 7.26 112.447 7.26C111.217 7.26 110.041 7.249 108.918 7.227C107.817 7.205 106.587 7.194 105.227 7.194V39.633C106.587 39.611 107.817 39.611 108.918 39.633C110.041 39.633 111.217 39.633 112.447 39.633C114.649 39.633 116.408 39.149 117.725 38.181C119.063 37.191 120.078 35.904 120.769 34.32C121.459 32.714 121.913 30.965 122.128 29.073C122.366 27.159 122.485 25.278 122.485 23.43Z" fill="#004466"/>
</svg>
