<svg width="160" height="120" viewBox="0 0 160 120" fill="none" xmlns="http://www.w3.org/2000/svg">
<path d="M46.07 100.086H32.2169L11.1466 64.6484L15.5287 57.8201C14.125 55.0769 13.1212 52.1326 12.5634 49.0521C12.3525 47.8909 12.2109 46.7253 12.1297 45.56L0 64.4606L21.1822 100.086H12.9344C6.81344 100.086 1.83406 105.026 1.83406 111.097V120H57.1703V111.097C57.1703 105.026 52.1906 100.086 46.07 100.086Z" fill="#5063F0"/>
<path d="M150.082 0H48.8847C43.4159 0 38.9666 4.41343 38.9666 9.8387V11.8968C42.5741 11.305 46.2756 11.3248 49.9375 11.9774C56.4094 13.1309 62.2956 16.1862 66.9597 20.8129L73.3853 27.1871L39.3544 60.9449H160V9.8387C160 4.41343 155.551 0 150.082 0Z" fill="#5063F0"/>
<path d="M38.9666 70.3731V83.5524C38.9666 88.9773 43.4156 93.3908 48.8847 93.3908H77.25L75.5741 110.572H67.73V120H74.6544H124.312H131.236V110.572H123.392L121.716 93.3908H150.081C155.55 93.3908 159.999 88.9773 159.999 83.5524V70.3731H38.9666Z" fill="#5063F0"/>
<path d="M35.1309 22.7817L32.16 24.0707L18.6456 10.6642L11.2391 18.0115L24.7534 31.4176L23.4544 34.3647C19.7453 42.7802 21.4947 52.3936 27.8978 58.9764L59.9416 27.1899C53.3053 20.8374 43.6147 19.1026 35.1309 22.7817Z" fill="#5063F0"/>
</svg>
